<?xml version="1.0" standalone="no"?><!DOCTYPE svg PUBLIC "-//W3C//DTD SVG 1.1//EN" "http://www.w3.org/Graphics/SVG/1.1/DTD/svg11.dtd"><svg t="1611558200999" class="icon" viewBox="0 0 1024 1024" version="1.1" xmlns="http://www.w3.org/2000/svg" p-id="746" xmlns:xlink="http://www.w3.org/1999/xlink" width="64" height="64"><defs><style type="text/css"></style></defs><path d="M512 512m-512 0a512 512 0 1 0 1024 0 512 512 0 1 0-1024 0Z" fill="#1296db" p-id="747" data-spm-anchor-id="a313x.7781069.0.i1" class="selected"></path><path d="M859.157333 398.293333l-201.493333 201.6-147.093333 54.826667 55.338666-146.56 201.493334-201.6a51.541333 51.541333 0 0 1 73.408 0l18.346666 18.346667a51.882667 51.882667 0 0 1 0 73.386666zM555.136 610.133333l88.298667-32.853333 4.928-5.12-55.04-55.04-4.992 5.12z m56.533333-111.36l55.061334 55.04 137.258666-137.386666-55.061333-55.04z m229.248-155.946666l-18.346666-18.346667a25.962667 25.962667 0 0 0-36.714667 0l-18.581333 18.56 55.061333 55.04 18.581333-18.56a25.984 25.984 0 0 0 0-36.693333zM368.170667 667.733333v-25.813333h127.594666l-9.813333 25.813333h-117.781333z m147.2-77.866666h-147.2v-26.026667h156.992z m-147.2-181.76h129.770666v26.026666h-129.770666v-26.026666zM497.941333 512h-129.770666v-26.026667h129.770666V512z m155.733334 129.92v25.813333h-126.165334l69.738667-25.813333h56.426667zM588.8 260.906667v95.36a25.856 25.856 0 0 0 25.941333 25.813333H654.933333l-25.962666 26.026667h-14.293334a51.904 51.904 0 0 1-51.904-51.84v-116.906667H329.237333a25.856 25.856 0 0 0-25.941333 25.813333v493.653334a25.856 25.856 0 0 0 25.941333 25.813333h363.349334a25.856 25.856 0 0 0 25.962666-25.813333v-183.253334l25.941334-25.813333v209.066667A51.904 51.904 0 0 1 692.586667 810.666667H329.237333A51.904 51.904 0 0 1 277.333333 758.826667V265.173333A51.904 51.904 0 0 1 329.237333 213.333333h251.285334l117.077333 126.08-18.154667 18.346667z" fill="#FFFFFF" p-id="748"></path></svg>