<?xml version="1.0" standalone="no"?><!DOCTYPE svg PUBLIC "-//W3C//DTD SVG 1.1//EN" "http://www.w3.org/Graphics/SVG/1.1/DTD/svg11.dtd"><svg t="1611555582321" class="icon" viewBox="0 0 1024 1024" version="1.1" xmlns="http://www.w3.org/2000/svg" p-id="15601" width="64" height="64" xmlns:xlink="http://www.w3.org/1999/xlink"><defs><style type="text/css"></style></defs><path d="M510.464 0.166698c281.83814 0 510.297302 228.47107 510.297302 510.297302 0 281.83814-228.47107 510.297302-510.297302 510.297302S0.166698 792.290233 0.166698 510.464 228.637767 0.166698 510.464 0.166698z m25.111814 399.574325h-44.579721v35.149396H364.972651v216.040186h43.722419v-22.289861h82.301023v84.444279h44.579721v-84.444279H619.162791v21.003907h43.722418V434.890419H535.575814v-35.149396z m-44.579721 152.171163v36.006698h-82.301023v-36.006698h82.301023z m128.166698 0v36.006698h-83.586977v-36.006698H619.162791z m0-75.871256v36.864h-83.586977V476.04093H619.162791z m-128.166698 0v36.864h-82.301023V476.04093h82.301023z m31.291535-165.459349l-47.580279 7.715721c3.85786 7.715721 7.715721 15.860093 11.14493 24.433117H326.822698v85.301581h43.722418v-44.579721h281.195163v42.436465h43.722419v-83.158325h-162.887442a483.232744 483.232744 0 0 0-10.287628-32.148838z m-11.823628 596.777675c219.207442 0 396.895256-177.687814 396.895256-396.895256 0-219.207442-177.687814-396.895256-396.895256-396.895256-219.207442 0-396.895256 177.699721-396.895256 396.895256 0 219.207442 177.699721 396.895256 396.895256 396.895256z m0-56.689116C322.595721 850.67014 170.269767 698.344186 170.269767 510.452093 170.269767 322.595721 322.595721 170.269767 510.452093 170.269767c187.880186 0 340.20614 152.325953 340.20614 340.194233 0 187.880186-152.325953 340.20614-340.20614 340.20614z" p-id="15602" data-spm-anchor-id="a313x.7781069.0.i1" class="selected" fill="#1296db"></path></svg>