<?xml version="1.0" standalone="no"?><!DOCTYPE svg PUBLIC "-//W3C//DTD SVG 1.1//EN" "http://www.w3.org/Graphics/SVG/1.1/DTD/svg11.dtd"><svg t="1614738225280" class="icon" viewBox="0 0 1024 1024" version="1.1" xmlns="http://www.w3.org/2000/svg" p-id="5235" xmlns:xlink="http://www.w3.org/1999/xlink" width="64" height="64"><defs><style type="text/css"></style></defs><path d="M0 0m219.428571 0l585.142858 0q219.428571 0 219.428571 219.428571l0 585.142858q0 219.428571-219.428571 219.428571l-585.142858 0q-219.428571 0-219.428571-219.428571l0-585.142858q0-219.428571 219.428571-219.428571Z" fill="#1296db" p-id="5236" data-spm-anchor-id="a313x.7781069.0.i7" class="selected"></path><path d="M768 457.142857v256a36.571429 36.571429 0 0 1-36.571429 36.571429H292.571429a36.571429 36.571429 0 0 1-36.571429-36.571429V457.142857h512z m-140.928 41.929143l-135.68 135.68-97.243429-64.822857a18.285714 18.285714 0 1 0-20.297142 30.427428l109.714285 73.142858a18.285714 18.285714 0 0 0 23.076572-2.285715l146.285714-146.285714a18.285714 18.285714 0 0 0-25.856-25.856zM329.142857 310.857143v18.285714a54.857143 54.857143 0 0 0 109.622857 3.218286L438.857143 329.142857v-18.285714h146.285714v18.285714a54.857143 54.857143 0 0 0 51.638857 54.765714L640 384a54.857143 54.857143 0 0 0 54.765714-51.638857L694.857143 329.142857v-18.285714h36.571428a36.571429 36.571429 0 0 1 36.571429 36.571428v73.142858H256v-73.142858a36.571429 36.571429 0 0 1 36.571429-36.571428h36.571428z" fill="#FFFFFF" p-id="5237"></path><path d="M365.714286 256m18.285714 0l0 0q18.285714 0 18.285714 18.285714l0 54.857143q0 18.285714-18.285714 18.285714l0 0q-18.285714 0-18.285714-18.285714l0-54.857143q0-18.285714 18.285714-18.285714Z" fill="#FFFFFF" p-id="5238"></path><path d="M621.714286 256m18.285714 0l0 0q18.285714 0 18.285714 18.285714l0 54.857143q0 18.285714-18.285714 18.285714l0 0q-18.285714 0-18.285714-18.285714l0-54.857143q0-18.285714 18.285714-18.285714Z" fill="#FFFFFF" p-id="5239"></path></svg>