<?xml version="1.0" standalone="no"?><!DOCTYPE svg PUBLIC "-//W3C//DTD SVG 1.1//EN" "http://www.w3.org/Graphics/SVG/1.1/DTD/svg11.dtd"><svg t="1618827643765" class="icon" viewBox="0 0 1181 1024" version="1.1" xmlns="http://www.w3.org/2000/svg" p-id="9165" xmlns:xlink="http://www.w3.org/1999/xlink" width="73.8125" height="64"><defs><style type="text/css"></style></defs><path d="M982.528 14.651077A199.561846 199.561846 0 0 1 1181.538462 213.661538v400.068924a199.561846 199.561846 0 0 1-199.010462 198.971076h-205.587692l-169.590154 196.647385-164.155077-196.647385h-244.184615A199.561846 199.561846 0 0 1 0 613.730462V213.661538A199.561846 199.561846 0 0 1 199.010462 14.651077h783.517538z m0 99.485538H199.010462c-56.398769 0-99.524923 43.126154-99.524924 99.524923v400.068924c0 56.359385 43.126154 99.485538 99.524924 99.485538h284.356923l123.982769 150.055385 123.943384-150.055385h251.273847c56.32 0 99.485538-43.126154 99.485538-99.485538V213.661538c0-56.398769-43.126154-99.524923-99.524923-99.524923zM315.904 354.461538a77.981538 77.981538 0 1 1 0 155.923693A77.981538 77.981538 0 0 1 315.864615 354.461538zM590.769231 354.461538a77.981538 77.981538 0 1 1 0 155.923693A77.981538 77.981538 0 0 1 590.769231 354.461538z m274.865231 0a77.981538 77.981538 0 1 1 0 155.923693 77.981538 77.981538 0 0 1 0-155.923693z" fill="#666666" p-id="9166"></path></svg>