<?xml version="1.0" standalone="no"?><!DOCTYPE svg PUBLIC "-//W3C//DTD SVG 1.1//EN" "http://www.w3.org/Graphics/SVG/1.1/DTD/svg11.dtd"><svg t="1625210498668" class="icon" viewBox="0 0 1024 1024" version="1.1" xmlns="http://www.w3.org/2000/svg" p-id="11219" xmlns:xlink="http://www.w3.org/1999/xlink" width="64" height="64"><defs><style type="text/css"></style></defs><path d="M1020.387704 820.679321c0 108.712918-89.103309 197.644213-197.988242 197.644213h-617.530656C95.983874 1018.323534 6.880564 929.392239 6.880564 820.679321V203.836721c0-108.884932 89.103309-197.816227 197.988242-197.816227h617.530656c108.884932 0 197.988241 88.931295 197.988242 197.644213v617.014614z m0 0" fill="#4683DB" p-id="11220"></path><path d="M817.239039 249.592474h-115.93751v-40.251301c0-33.542752-27.350244-60.892995-60.892995-60.892996H211.233328c-33.542752 0-60.892995 27.350244-60.892995 60.892996v505.033428c0 33.542752 27.350244 60.892995 60.892995 60.892995h115.93751v40.251302c0 33.542752 27.350244 60.892995 60.892995 60.892995h429.34722c33.542752 0 60.892995-27.350244 60.892995-60.892995V310.48547c-0.344028-33.542752-27.522258-60.892995-61.065009-60.892996z m-174.422308 0H387.891819c-33.542752 0-60.892995 27.350244-60.892995 60.892996v406.297329h-115.93751c-1.204099 0-2.236183-1.032085-2.236184-2.236184V209.513187c0-1.204099 1.032085-2.236183 2.236184-2.236184h429.175205c1.204099 0 2.236183 1.032085 2.236184 2.236184v40.079287z m176.658492 60.892996v505.033428c0 1.204099-1.032085 2.236183-2.236184 2.236183H387.891819c-1.204099 0-2.236183-1.032085-2.236183-2.236183V310.48547c0-1.204099 1.032085-2.236183 2.236183-2.236184h429.34722c1.204099 0 2.236183 1.032085 2.236184 2.236184z" fill="#FFFFFF" p-id="11221"></path><path d="M760.302369 641.09659H444.82849c-16.169326 0-29.242399 13.073072-29.242399 29.242399s13.073072 29.242399 29.242399 29.242399H760.302369c16.169326 0 29.242399-13.073072 29.242398-29.242399 0.172014-16.169326-13.073072-29.242399-29.242398-29.242399zM797.629431 338.179741c-6.020494-4.816395-13.761129-7.052579-21.501764-6.364522-7.740635 0.860071-14.793214 4.644381-19.609609 10.836889l-134.171006 168.2298-65.881404-47.475894c-11.69696-8.428691-27.522258-7.052579-37.671091 3.096254l-113.529313 113.529313c-5.504452 5.504452-8.600706 13.073072-8.600705 20.641693 0 7.740635 3.096254 15.309256 8.600705 20.641693 5.504452 5.504452 12.901058 8.600706 20.641694 8.600706h0.172014c7.740635 0 15.137242-3.096254 20.813707-8.600706l96.155888-96.155888 68.63363 48.679994 0.172014 0.172014c12.55703 8.600706 29.242399 6.192508 39.047203-5.504452l151.544432-189.559549c4.816395-6.020494 7.052579-13.761129 6.364522-21.501764-1.204099-7.396607-4.988409-14.449185-11.180917-19.265581z" fill="#FFFFFF" p-id="11222"></path><path d="M822.399462 5.332437h-617.530656C98.392071 5.332437 11.008903 90.479422 7.052579 196.096086v632.151856c1.892155 51.088191 23.393919 97.359987 57.108684 131.590795L961.21485 62.613136C925.435915 27.350244 876.411893 5.332437 822.399462 5.332437z" opacity=".1" p-id="11223"></path></svg>