<?xml version="1.0" standalone="no"?><!DOCTYPE svg PUBLIC "-//W3C//DTD SVG 1.1//EN" "http://www.w3.org/Graphics/SVG/1.1/DTD/svg11.dtd"><svg t="1611543886743" class="icon" viewBox="0 0 1024 1024" version="1.1" xmlns="http://www.w3.org/2000/svg" p-id="22928" xmlns:xlink="http://www.w3.org/1999/xlink" width="32" height="32"><defs><style type="text/css"></style></defs><path d="M0 512c0 282.760533 229.239467 512 512 512 282.760533 0 512-229.239467 512-512 0-282.760533-229.239467-512-512-512C229.239467 0 0 229.239467 0 512z" fill="#969799" p-id="22929" data-spm-anchor-id="a313x.7781069.0.i15" class="selected"></path><path d="M742.912 276.309333a17.681067 17.681067 0 0 1 7.68 18.193067l-73.1136 438.852267a18.193067 18.193067 0 0 1-24.7808 13.755733l-129.365333-52.906667-69.188267 84.309334a16.725333 16.725333 0 0 1-14.062933 6.519466 17.749333 17.749333 0 0 1-15.018667-7.850666 17.92 17.92 0 0 1-3.310933-10.410667v-99.6352l246.784-302.660267-305.288534 264.3968-112.776533-46.2848c-7.099733-2.594133-10.8544-7.8848-11.434667-15.701333a16.964267 16.964267 0 0 1 9.216-16.930133l475.170134-274.295467a17.885867 17.885867 0 0 1 19.5584 0.682667h-0.068267z" fill="#FFFFFF" p-id="22930"></path></svg>