<?xml version="1.0" standalone="no"?><!DOCTYPE svg PUBLIC "-//W3C//DTD SVG 1.1//EN" "http://www.w3.org/Graphics/SVG/1.1/DTD/svg11.dtd"><svg t="1609904840284" class="icon" viewBox="0 0 1024 1024" version="1.1" xmlns="http://www.w3.org/2000/svg" p-id="20916" xmlns:xlink="http://www.w3.org/1999/xlink" width="128" height="128"><defs><style type="text/css"></style></defs><path d="M864 1024H160A160.176 160.176 0 0 1 0 864V160A160.176 160.176 0 0 1 160 0h704a160.176 160.176 0 0 1 160 160v704a160.176 160.176 0 0 1-160 160zM496 256a41.6 41.6 0 0 0-16.608 3.44l-230.16 99.776a41.68 41.68 0 0 0-25.232 38.4v360.432A41.952 41.952 0 0 0 265.856 800h460.288A41.952 41.952 0 0 0 768 758.048v-156l-93.952 83.84a40 40 0 0 1-51.856 0.128V611.2h-42.64v-83.488h42.64v-74.464a39.072 39.072 0 0 1 25.904-9.472 38.688 38.688 0 0 1 25.952 9.6L768 537.168v-139.424a41.888 41.888 0 0 0-25.232-38.4l-230.16-99.904A41.6 41.6 0 0 0 496 256z m41.712 355.2h-41.84v-83.488h41.84V611.2z m-83.696 0h-41.84v-83.488h41.84V611.2z" fill="#d4237a" p-id="20917"></path></svg>