<?xml version="1.0" standalone="no"?><!DOCTYPE svg PUBLIC "-//W3C//DTD SVG 1.1//EN" "http://www.w3.org/Graphics/SVG/1.1/DTD/svg11.dtd"><svg t="1607307847973" class="icon" viewBox="0 0 1024 1024" version="1.1" xmlns="http://www.w3.org/2000/svg" p-id="58412" xmlns:xlink="http://www.w3.org/1999/xlink" width="128" height="128"><defs><style type="text/css"></style></defs><path d="M819.2 1001.472H204.8c-100.352 0-182.272-81.92-182.272-182.272V204.8c0-100.352 81.92-182.272 182.272-182.272h614.4c100.352 0 182.272 81.92 182.272 182.272v614.4c0 100.352-81.92 182.272-182.272 182.272z" fill="#3caf08" p-id="58413" data-spm-anchor-id="a313x.7781069.0.i21" class="selected"></path><path d="M395.4688 517.5296c-4.096 12.6976 0.2048 24.576 12.6976 28.672l90.3168 58.1632 147.0464-141.7216c2.8672-3.072 4.7104-6.144 5.9392-9.8304 2.6624-8.192 0.6144-17.2032-6.144-24.3712-9.216-9.216-24.3712-9.216-33.5872 0l-120.0128 117.76-66.9696-42.3936c-12.4928-3.8912-25.1904 1.2288-29.2864 13.7216z" fill="#FFFFFF" p-id="58414"></path><path d="M523.264 256c-57.9584 0-113.664 19.456-158.9248 55.0912l-23.552-23.552c-2.6624-2.6624-6.7584-1.6384-7.168 1.8432l-4.5056 73.5232c0 3.4816 2.8672 6.7584 6.3488 6.3488l73.3184-4.5056c3.4816-0.4096 4.9152-4.5056 1.8432-7.168l-21.0944-21.0944c38.2976-28.8768 84.992-44.6464 133.5296-44.6464 122.0608 0 220.9792 98.9184 220.9792 220.9792s-99.5328 220.9792-221.3888 220.9792c-121.856 0-220.9792-98.9184-220.9792-220.9792 0-9.216 0.4096-18.6368 1.6384-27.648 1.2288-9.6256-5.5296-18.6368-15.36-19.8656-9.6256-1.6384-18.6368 5.5296-19.8656 15.36-1.2288 10.6496-1.8432 21.504-1.8432 32.1536 0 141.7216 115.3024 257.024 257.024 257.024S780.288 654.5408 780.288 512.8192c0-141.5168-115.3024-256.8192-257.024-256.8192z" fill="#FFFFFF" p-id="58415"></path></svg>