<?xml version="1.0" standalone="no"?><!DOCTYPE svg PUBLIC "-//W3C//DTD SVG 1.1//EN" "http://www.w3.org/Graphics/SVG/1.1/DTD/svg11.dtd"><svg t="1617782360273" class="icon" viewBox="0 0 1024 1024" version="1.1" xmlns="http://www.w3.org/2000/svg" p-id="2657" width="32" height="32" xmlns:xlink="http://www.w3.org/1999/xlink"><defs><style type="text/css"></style></defs><path d="M569.628 968.334c-15.36 0-29.468-3.498-43.064-10.638l-117.22-65.422a88.178 88.178 0 0 1-46.649-78.393V441.259a18.432 18.432 0 0 0-7.054-14.137L84.423 209.607l-2.958-3.584C56.149 180.651 50.29 142.99 64.37 109.938a86.812 86.812 0 0 1 81.408-53.05h731.59c35.357 0 67.187 20.595 82.006 53.05a87.865 87.865 0 0 1-15.957 96.085l-3.556 3.499-274.66 219.932a18.83 18.83 0 0 0-6.456 14.137v435.086a88.377 88.377 0 0 1-87.069 89.657h-2.048zM130.987 156.558l270.08 215.78a89.088 89.088 0 0 1 33.65 69.518v372.622c0 6.457 2.815 12.914 8.732 15.93l117.305 64.227a19.911 19.911 0 0 0 18.318 0 18.574 18.574 0 0 0 8.818-15.93V444.189c0-27.05 11.776-52.508 32.967-69.603L891.534 156.53a18.176 18.176 0 0 0 1.735-18.887 17.778 17.778 0 0 0-15.929-10.098H145.778a16.84 16.84 0 0 0-15.872 10.098 17.924 17.924 0 0 0 1.08 18.83v0.057z m799.971 370.148H729.941a35.47 35.47 0 0 1-35.385-35.328c0-19.513 15.93-35.385 35.328-35.385h201.017c19.513 0 35.47 15.929 35.47 35.328a34.702 34.702 0 0 1-35.413 35.385z m0 133.262H729.941a35.47 35.47 0 0 1-35.385-35.413c0-19.513 15.93-35.328 35.328-35.328h201.017c19.513 0 35.47 15.957 35.47 35.27a34.702 34.702 0 0 1-35.413 35.471z m0 132.636H729.941a35.47 35.47 0 0 1-35.385-35.384c0-19.456 15.93-35.328 35.328-35.328h201.017c19.513 0 35.47 15.872 35.47 35.328 0 19.512-15.416 35.328-35.413 35.328v0.056z" p-id="2658" fill="#707070"></path></svg>