<?xml version="1.0" standalone="no"?><!DOCTYPE svg PUBLIC "-//W3C//DTD SVG 1.1//EN" "http://www.w3.org/Graphics/SVG/1.1/DTD/svg11.dtd"><svg t="1611544033340" class="icon" viewBox="0 0 1024 1024" version="1.1" xmlns="http://www.w3.org/2000/svg" p-id="24122" width="32" height="32" xmlns:xlink="http://www.w3.org/1999/xlink"><defs><style type="text/css"></style></defs><path d="M512 1024C229.2224 1024 0 794.7776 0 512S229.2224 0 512 0s512 229.2224 512 512-229.2224 512-512 512z m238.9504-324.1984c18.8416 0 34.0992-14.0288 34.0992-31.232v-62.5664c0-17.2544-15.2576-31.232-34.0992-31.232h-204.8V507.7504c66.56-15.7184 109.9776-74.3424 101.2736-136.8064C638.7712 308.5312 580.7616 261.632 512 261.632s-126.7712 46.848-135.424 109.312c-8.704 62.464 34.7136 121.088 101.2736 136.8064v66.9184h-204.8c-18.8416 0-34.0992 14.0288-34.0992 31.2832v62.5152c0 17.2544 15.2576 31.232 34.0992 31.232h477.9008z m-426.7008 31.232c-9.4208 0-17.0496 7.0144-17.0496 15.6672 0 8.6016 7.68 15.616 17.0496 15.616h375.5008c9.4208 0 17.0496-7.0144 17.0496-15.616 0-8.6528-7.68-15.6672-17.0496-15.6672H324.2496z" fill="#969799" p-id="24123" data-spm-anchor-id="a313x.7781069.0.i20" class=""></path></svg>