<?xml version="1.0" standalone="no"?><!DOCTYPE svg PUBLIC "-//W3C//DTD SVG 1.1//EN" "http://www.w3.org/Graphics/SVG/1.1/DTD/svg11.dtd"><svg class="icon" width="200px" height="200.00px" viewBox="0 0 1024 1024" version="1.1" xmlns="http://www.w3.org/2000/svg"><path fill="#1296db" d="M849.170732 0c97.404878 0 174.829268 77.42439 174.829268 174.829268v674.341464c0 97.404878-77.42439 174.829268-174.829268 174.829268H174.829268c-97.404878 0-174.829268-77.42439-174.829268-174.829268V174.829268c0-97.404878 77.42439-174.829268 174.829268-174.829268h674.341464z m-197.307317 594.419512c-27.473171 0-54.946341 9.990244-72.429269 29.970732-19.980488 17.482927-29.970732 44.956098-29.970731 72.429268 0 27.473171 9.990244 52.44878 29.970731 72.429268 19.980488 19.980488 44.956098 29.970732 72.429269 29.970732 27.473171 0 54.946341-9.990244 72.429268-29.970732 19.980488-19.980488 29.970732-44.956098 29.970732-72.429268 0-27.473171-9.990244-52.44878-29.970732-72.429268-17.482927-17.482927-44.956098-29.970732-72.429268-29.970732zM584.429268 249.756098H314.692683c-22.478049 0-39.960976 17.482927-39.960976 42.458536v444.565854c0 22.478049 17.482927 42.458537 42.458537 42.458536h234.770732c-19.980488-22.478049-34.965854-44.956098-34.965854-77.42439 0-72.429268 62.439024-132.370732 137.365854-132.370732 32.468293 0 49.95122 9.990244 74.926829 29.970732v-204.8c0-9.990244-7.492683-27.473171-14.985366-34.965854L624.390244 267.239024c-12.487805-12.487805-24.97561-17.482927-39.960976-17.482926z m72.429269 389.619512l12.487804 24.97561c2.497561 2.497561 4.995122 4.995122 7.492683 4.995121l29.970732 4.995122c7.492683 0 9.990244 9.990244 4.995122 14.985366l-22.478049 19.980488c-2.497561 2.497561-2.497561 4.995122-2.497561 7.492683l4.995122 27.473171c0 7.492683-7.492683 12.487805-14.985366 9.990244l-24.975609-14.985366c-2.497561-2.497561-4.995122-2.497561-7.492683 0l-24.97561 14.985366c-7.492683 2.497561-14.985366-2.497561-14.985366-9.990244l4.995122-27.473171c0-2.497561 0-7.492683-2.497561-7.492683l-22.478049-19.980488c-4.995122-4.995122-2.497561-14.985366 4.995122-14.985366l29.970732-4.995122c2.497561 0 4.995122-2.497561 7.492683-4.995121l12.487805-24.97561c4.995122-4.995122 14.985366-4.995122 17.482927 0z m-169.834147-84.917073c12.487805 0 22.478049 9.990244 22.478049 19.980487 0 12.487805-9.990244 19.980488-22.478049 19.980488h-109.892683c-12.487805 0-22.478049-9.990244-22.478048-19.980488 0-12.487805 9.990244-19.980488 22.478048-19.980487h109.892683z m139.863415-99.902439c12.487805 0 22.478049 9.990244 22.478049 19.980487 0 12.487805-9.990244 19.980488-22.478049 19.980488h-249.756098c-12.487805 0-22.478049-9.990244-22.478048-19.980488 0-12.487805 9.990244-19.980488 22.478048-19.980487h249.756098z m0-92.409757c12.487805 0 22.478049 9.990244 22.478049 19.980488 0 12.487805-9.990244 19.980488-22.478049 19.980488h-249.756098c-12.487805 0-22.478049-9.990244-22.478048-19.980488 0-12.487805 9.990244-19.980488 22.478048-19.980488h249.756098z"  /></svg>