<?xml version="1.0" standalone="no"?><!DOCTYPE svg PUBLIC "-//W3C//DTD SVG 1.1//EN" "http://www.w3.org/Graphics/SVG/1.1/DTD/svg11.dtd"><svg t="1607307715088" class="icon" viewBox="0 0 1024 1024" version="1.1" xmlns="http://www.w3.org/2000/svg" p-id="54801" xmlns:xlink="http://www.w3.org/1999/xlink" width="128" height="128"><defs><style type="text/css"></style></defs><path d="M139.52 4.032h744.96c75.008 0 135.488 60.608 135.488 135.424V884.48a135.232 135.232 0 0 1-135.488 135.424H139.52A135.296 135.296 0 0 1 4.096 884.48V139.52A135.424 135.424 0 0 1 139.52 4.032z" fill="#507BEE" p-id="54802"></path><path d="M649.536 580.672c-3.136-3.84-6.4-4.736-11.968-8.128a248.832 248.832 0 0 0-32.32-17.408 177.536 177.536 0 0 0 76.224-146.24c-0.064-97.92-78.272-177.216-174.784-177.216-96.576 0-174.848 79.296-174.848 177.152a177.472 177.472 0 0 0 76.288 146.304 252.672 252.672 0 0 0-148.352 196.352 26.112 26.112 0 0 0-1.856 9.344l0.256 2.368c0 13.952 11.136 25.28 24.896 25.28a25.088 25.088 0 0 0 24.896-25.28v-0.32h0.576c11.84-97.856 92.544-174.08 191.616-177.216 2.112 0.064 4.224 0.256 6.4 0.256s4.288-0.192 6.4-0.256a195.904 195.904 0 0 1 100.032 31.168 27.264 27.264 0 0 0 8 5.44M506.624 544.256c-73.728 0-133.568-60.672-133.568-135.36s59.84-135.36 133.568-135.36c73.792 0 133.504 60.608 133.504 135.36s-59.712 135.36-133.504 135.36zM623.552 690.688c-7.232 10.368-22.528 78.336-8.192 88.128 14.336 9.92 75.264-26.88 82.112-36.672l125.12-180.288-73.984-51.392-125.056 180.224zM853.376 468.032l-27.584-19.136a28.288 28.288 0 0 0-39.36 7.104l-15.68 22.592 74.048 51.392 15.616-22.592a28.352 28.352 0 0 0-7.04-39.36z" fill="#FFFFFF" p-id="54803"></path></svg>