<?xml version="1.0" standalone="no"?><!DOCTYPE svg PUBLIC "-//W3C//DTD SVG 1.1//EN" "http://www.w3.org/Graphics/SVG/1.1/DTD/svg11.dtd"><svg t="1617271723942" class="icon" viewBox="0 0 1024 1024" version="1.1" xmlns="http://www.w3.org/2000/svg" p-id="11099" xmlns:xlink="http://www.w3.org/1999/xlink" width="32" height="32"><defs><style type="text/css"></style></defs><path d="M634.453333 128a20.48 20.48 0 0 1 16.96 9.002667l75.562667 112.256h152.32c56.277333 0 102.037333 45.333333 102.037333 101.056v444.629333C981.333333 850.666667 935.573333 896 879.296 896H144.704C88.426667 896 42.666667 850.666667 42.666667 794.944V350.314667c0-55.722667 45.76-101.056 102.037333-101.056h152.32l75.562667-112.256A20.48 20.48 0 0 1 389.568 128z m-10.944 40.426667H400.490667l-75.562667 112.256a20.48 20.48 0 0 1-16.981333 9.002666H144.704c-33.749333 0-61.226667 27.2-61.226667 60.629334v444.629333c0 33.429333 27.477333 60.629333 61.226667 60.629333h734.592c33.749333 0 61.226667-27.2 61.226667-60.629333V350.314667c0-33.429333-27.477333-60.629333-61.226667-60.629334h-163.242667a20.48 20.48 0 0 1-16.981333-9.002666l-75.562667-112.256zM512 370.517333c101.269333 0 183.658667 81.621333 183.658667 181.909334 0 100.309333-82.389333 181.888-183.658667 181.888-101.248 0-183.658667-81.578667-183.658667-181.888 0-100.288 82.410667-181.909333 183.658667-181.909334z m0 40.426667c-78.762667 0-142.848 63.466667-142.848 141.482667 0 77.994667 64.085333 141.461333 142.848 141.461333 78.741333 0 142.848-63.466667 142.848-141.461333 0-78.016-64.106667-141.482667-142.848-141.482667z" fill="#141414" p-id="11100"></path></svg>