<?xml version="1.0" standalone="no"?><!DOCTYPE svg PUBLIC "-//W3C//DTD SVG 1.1//EN" "http://www.w3.org/Graphics/SVG/1.1/DTD/svg11.dtd"><svg t="1609150681050" class="icon" viewBox="0 0 1024 1024" version="1.1" xmlns="http://www.w3.org/2000/svg" p-id="33795" xmlns:xlink="http://www.w3.org/1999/xlink" width="128" height="128"><defs><style type="text/css"></style></defs><path d="M877.795556 0C958.577778 0 1024 65.592889 1024 146.204444v731.591112c0 80.782222-65.592889 146.204444-146.204444 146.204444H146.204444A146.261333 146.261333 0 0 1 0 877.795556V146.204444C0 65.422222 65.592889 0 146.204444 0h731.591112zM739.555556 387.868444H284.444444v320.682667c0 17.578667 12.856889 31.004444 29.696 31.004445h395.719112c16.839111 0 29.696-13.425778 29.696-31.004445V387.868444zM472.405333 455.111111c4.949333 0 10.922667 1.024 15.872 4.152889l112.753778 68.266667c19.797333 11.377778 19.797333 40.334222 0 51.712l-112.753778 68.266666a28.046222 28.046222 0 0 1-15.872 4.152889c-15.815111 0-29.639111-8.305778-29.639111-25.884444V480.995556c0-17.635556 13.824-25.884444 29.639111-25.884445z m-56.376889-170.666667h-76.231111l67.356445 82.773334h76.174222L416.028444 284.444444z m197.859556 0H537.713778l67.299555 82.773334h76.174223L613.831111 284.444444zM514.958222 284.444444H438.784l67.299556 82.773334h76.174222L514.958222 284.444444z m194.901334 0h-73.216l67.299555 82.773334H739.555556v-51.768889c0-17.578667-12.856889-31.004444-29.696-31.004445zM317.098667 284.444444h-2.958223C297.301333 284.444444 284.444444 297.870222 284.444444 315.448889v51.768889h99.953778L317.098667 284.444444z" fill="#3f81c1" p-id="33796"></path></svg>