<?xml version="1.0" standalone="no"?><!DOCTYPE svg PUBLIC "-//W3C//DTD SVG 1.1//EN" "http://www.w3.org/Graphics/SVG/1.1/DTD/svg11.dtd"><svg t="1609725144465" class="icon" viewBox="0 0 1024 1024" version="1.1" xmlns="http://www.w3.org/2000/svg" p-id="2481" xmlns:xlink="http://www.w3.org/1999/xlink" width="128" height="128"><defs><style type="text/css"></style></defs><path d="M0 0m142.222222 0l739.555556 0q142.222222 0 142.222222 142.222222l0 739.555556q0 142.222222-142.222222 142.222222l-739.555556 0q-142.222222 0-142.222222-142.222222l0-739.555556q0-142.222222 142.222222-142.222222Z" fill="#409EFF" p-id="2482"></path><path d="M503.608889 227.555556a91.633778 91.633778 0 0 0-89.059556 70.741333c-12.672 4.295111-24.945778 9.685333-36.664889 16.128a260.977778 260.977778 0 0 0-41.045333 27.861333 284.444444 284.444444 0 0 0-34.460444 36.650667 256.583111 256.583111 0 0 0-27.121778 41.059555 262.826667 262.826667 0 0 0-19.057778 45.824 36.650667 36.650667 0 0 0 24.917333 45.809778c3.527111 0.568889 7.111111 0.568889 10.638223 0a36.650667 36.650667 0 0 0 34.816-26.026666c3.541333-11.249778 8.078222-22.172444 13.568-32.611556 5.688889-10.268444 12.188444-20.081778 19.427555-29.326222a199.395556 199.395556 0 0 1 53.873778-45.084445c5.134222-2.56 10.268444-4.408889 15.402667-6.599111A91.633778 91.633778 0 1 0 503.608889 227.555556z m17.607111 493.738666c-12.188444 1.237333-24.462222 1.237333-36.664889 0a193.905778 193.905778 0 0 1-36.650667-7.324444c-11.377778-3.214222-22.328889-7.765333-32.625777-13.568a96.768 96.768 0 0 1-12.828445-8.419556 91.278222 91.278222 0 1 0-82.104889 53.518222 93.098667 93.098667 0 0 0 24.561778-4.039111c11.406222 9.244444 23.68 17.336889 36.650667 24.192 14.648889 7.765333 29.994667 14.136889 45.824 19.057778a281.884444 281.884444 0 0 0 49.479111 9.898667h24.931555c8.903111 0.568889 17.834667 0.568889 26.752 0a36.835556 36.835556 0 1 0-7.324444-73.315556z m232.760889-133.788444c1.464889-7.822222 2.56-15.502222 3.285333-23.082667a247.054222 247.054222 0 0 0 0-52.053333 258.417778 258.417778 0 0 0-10.624-50.588445 237.155556 237.155556 0 0 0-19.797333-46.549333 235.320889 235.320889 0 0 0-27.847111-40.675556 36.693333 36.693333 0 1 0-56.462222 46.904889 198.300444 198.300444 0 0 1 20.167111 29.326223c5.873778 10.481778 10.666667 21.532444 14.293333 32.995555 3.768889 11.904 6.229333 24.206222 7.338667 36.650667 1.408 12.174222 1.408 24.462222 0 36.650666 0.170667 1.834667 0.170667 3.669333 0 5.504a89.799111 89.799111 0 1 0 98.602666 89.073778 88.348444 88.348444 0 0 0-28.956444-64.142222z" fill="#FFFFFF" p-id="2483"></path></svg>