<?xml version="1.0" standalone="no"?><!DOCTYPE svg PUBLIC "-//W3C//DTD SVG 1.1//EN" "http://www.w3.org/Graphics/SVG/1.1/DTD/svg11.dtd"><svg t="1617074846207" class="icon" viewBox="0 0 1024 1024" version="1.1" xmlns="http://www.w3.org/2000/svg" p-id="6590" xmlns:xlink="http://www.w3.org/1999/xlink" width="32" height="32"><defs><style type="text/css"></style></defs><path d="M817.005714 1022.537143H206.994286C92.891429 1022.537143 0 929.645714 0 815.542857V209.92C0 95.817143 92.891429 2.925714 206.994286 2.925714h609.28c114.102857 0 206.994286 93.622857 206.994285 206.994286v605.622857c0.731429 114.102857-92.891429 206.994286-206.262857 206.994286z" fill="#01A6D7" p-id="6591"></path><path d="M397.165714 301.348571v44.617143c0 12.434286 10.971429 21.942857 24.137143 21.942857 13.165714 0 24.137143-9.508571 24.137143-21.942857v-44.617143c0-11.702857-10.971429-21.211429-24.137143-21.211428-13.165714-0.731429-24.137143 9.508571-24.137143 21.211428z m180.662857 0v44.617143c0 12.434286 10.971429 21.942857 24.137143 21.942857 13.165714 0 24.137143-9.508571 24.137143-21.942857v-44.617143c0-11.702857-10.971429-21.211429-24.137143-21.211428-13.165714-0.731429-24.137143 9.508571-24.137143 21.211428z" fill="#FFFFFF" p-id="6592"></path><path d="M726.308571 376.685714v257.462857c0 4.388571-1.462857 8.777143-2.925714 13.897143s-10.24 15.36-10.24 15.36l-84.845714 81.188572s-7.314286 8.777143-15.36 11.702857c-5.851429 2.194286-12.434286 2.925714-17.554286 2.925714H358.4c-38.765714 0-53.394286-19.748571-53.394286-55.588571V376.685714c0-32.914286 10.24-55.588571 50.468572-55.588571h30.72v32.914286c0 16.091429 17.554286 29.257143 35.84 29.257142s35.84-13.165714 35.84-29.257142v-32.914286h109.714285v32.914286c0 16.091429 17.554286 29.257143 35.84 29.257142 18.285714 0 35.84-13.165714 35.84-29.257142v-32.914286H672.914286c35.84-0.731429 53.394286 22.674286 53.394285 55.588571zM557.348571 642.925714c8.045714 0 13.165714-9.508571 13.165715-17.554285-0.731429-8.045714-7.314286-14.628571-15.36-14.628572H403.748571c-8.045714 0-14.628571 6.582857-14.628571 14.628572s8.045714 17.554286 16.091429 17.554285h152.137142zM621.714286 556.617143c8.045714 0 16.091429-8.777143 16.091428-16.822857-0.731429-8.777143-7.314286-16.091429-15.36-16.091429H407.405714c-8.045714 0-14.628571 8.045714-14.628571 16.091429s5.12 16.822857 13.165714 16.822857H621.714286z m0-89.234286c8.045714 0 16.091429-8.777143 16.091428-16.822857-0.731429-8.777143-7.314286-16.091429-15.36-16.091429H407.405714c-8.045714 0-14.628571 8.045714-14.628571 16.091429s5.12 16.822857 13.165714 16.822857H621.714286z" fill="#FFFFFF" p-id="6593"></path></svg>