<?xml version="1.0" standalone="no"?><!DOCTYPE svg PUBLIC "-//W3C//DTD SVG 1.1//EN" "http://www.w3.org/Graphics/SVG/1.1/DTD/svg11.dtd"><svg t="1611217855380" class="icon" viewBox="0 0 1024 1024" version="1.1" xmlns="http://www.w3.org/2000/svg" p-id="12363" xmlns:xlink="http://www.w3.org/1999/xlink" width="128" height="128"><defs><style type="text/css"></style></defs><path d="M186.181818 0h651.636364c102.4 0 186.181818 83.781818 186.181818 186.181818v651.636364c0 102.4-83.781818 186.181818-186.181818 186.181818H186.181818c-102.4 0-186.181818-83.781818-186.181818-186.181818V186.181818c0-102.4 83.781818-186.181818 186.181818-186.181818z" fill="#1296db" p-id="12364" data-spm-anchor-id="a313x.7781069.0.i0" class="selected"></path><path d="M505.018182 256c55.854545 0 102.4 27.927273 102.4 86.109091 0 20.945455-6.981818 39.563636-18.618182 55.854545 81.454545 39.563636 139.636364 128 139.636364 204.8 0 102.4-100.072727 162.909091-225.745455 162.909091S279.272727 705.163636 279.272727 605.090909c0-76.8 58.181818-167.563636 139.636364-204.8-11.636364-16.290909-18.618182-34.909091-18.618182-55.854545 2.327273-60.509091 46.545455-88.436364 104.727273-88.436364z m39.563636 230.4l-37.236363 37.236364-2.327273 2.327272L465.454545 488.727273c-6.981818-6.981818-16.290909-6.981818-20.945454 0-4.654545 4.654545-6.981818 13.963636-2.327273 20.945454l2.327273 2.327273 32.581818 32.581818h-18.618182c-9.309091 0-16.290909 6.981818-16.290909 16.290909 0 6.981818 4.654545 13.963636 13.963637 16.290909H488.727273v20.945455h-41.890909c-9.309091 0-16.290909 6.981818-16.290909 16.290909 0 6.981818 4.654545 13.963636 13.963636 16.290909H488.727273v32.581818c0 9.309091 6.981818 16.290909 16.290909 16.290909 6.981818 0 13.963636-4.654545 16.290909-13.963636v-34.909091h39.563636c9.309091 0 16.290909-6.981818 16.290909-16.290909 0-6.981818-4.654545-13.963636-13.963636-16.290909h-41.890909v-20.945455h30.254545c9.309091 0 16.290909-6.981818 16.290909-16.290909 0-6.981818-4.654545-13.963636-13.963636-16.290909h-20.945454l32.581818-32.581818 2.327272-2.327273c4.654545-6.981818 4.654545-13.963636-2.327272-20.945454-6.981818-6.981818-16.290909-6.981818-20.945455-2.327273z" fill="#FFFFFF" p-id="12365"></path></svg>