<?xml version="1.0" standalone="no"?><!DOCTYPE svg PUBLIC "-//W3C//DTD SVG 1.1//EN" "http://www.w3.org/Graphics/SVG/1.1/DTD/svg11.dtd"><svg t="1620870389875" class="icon" viewBox="0 0 1024 1024" version="1.1" xmlns="http://www.w3.org/2000/svg" p-id="22697" xmlns:xlink="http://www.w3.org/1999/xlink" width="64" height="64"><defs><style type="text/css"></style></defs><path d="M0 0m76.8 0l870.4 0q76.8 0 76.8 76.8l0 870.4q0 76.8-76.8 76.8l-870.4 0q-76.8 0-76.8-76.8l0-870.4q0-76.8 76.8-76.8Z" fill="#1296db" p-id="22698" data-spm-anchor-id="a313x.7781069.0.i15" class="selected"></path><path d="M512 143.36c-203.3152 0-368.128 164.992-368.128 368.5376 0 203.52 164.8128 368.512 368.128 368.512 203.3152 0 368.128-164.992 368.128-368.512C880.128 308.352 715.3408 143.36 512 143.36z" fill="#FFFFFF" p-id="22699"></path><path d="M664.3712 556.4672h-143.2832v-198.016c0-15.2832-11.1872-27.648-24.9856-27.648-13.824 0-25.0112 12.3648-25.0112 27.648v220.416l0.0256 1.4336a23.7568 23.7568 0 0 0 7.7312 18.56 23.7056 23.7056 0 0 0 18.432 7.6288h167.0656c15.2832 0 27.648-11.1616 27.648-24.9856s-12.3648-25.0368-27.648-25.0368z" fill="#1296db" p-id="22700" data-spm-anchor-id="a313x.7781069.0.i16" class="selected"></path></svg>