<?xml version="1.0" standalone="no"?><!DOCTYPE svg PUBLIC "-//W3C//DTD SVG 1.1//EN" "http://www.w3.org/Graphics/SVG/1.1/DTD/svg11.dtd"><svg t="1621408730018" class="icon" viewBox="0 0 1024 1024" version="1.1" xmlns="http://www.w3.org/2000/svg" p-id="11026" xmlns:xlink="http://www.w3.org/1999/xlink" width="64" height="64"><defs><style type="text/css"></style></defs><path d="M0 0m102.4 0l819.2 0q102.4 0 102.4 102.4l0 819.2q0 102.4-102.4 102.4l-819.2 0q-102.4 0-102.4-102.4l0-819.2q0-102.4 102.4-102.4Z" fill="#DC355C" p-id="11027"></path><path d="M612.9664 478.3104a98.4064 98.4064 0 0 0 95.8464-100.864 95.9488 95.9488 0 1 0-191.6928 0 98.4064 98.4064 0 0 0 95.8464 100.864z m-58.88-117.76h42.9056v-41.984a15.9744 15.9744 0 1 1 31.9488 0v41.984h42.9056a16.896 16.896 0 0 1 0 33.6896h-42.9056v48.3328a15.9744 15.9744 0 1 1-31.9488 0V394.24h-42.9056a16.896 16.896 0 0 1 0-33.6896z m-68.9152 16.896A137.1136 137.1136 0 0 1 528.4864 276.48H349.3888A32.8704 32.8704 0 0 0 317.44 310.1696v31.5392L485.6832 389.12c-0.3072-3.7888-0.512-7.7824-0.512-11.6736zM612.9664 512a128.1024 128.1024 0 0 1-119.0912-85.7088L317.44 376.5248v337.3056A32.8704 32.8704 0 0 0 349.3888 747.52h335.4624A32.8704 32.8704 0 0 0 716.8 713.8304V455.8848A125.7472 125.7472 0 0 1 612.9664 512z m-43.9296 108.032v22.3232h-36.0448v16.9984h36.0448v22.528h-36.0448v30.72h-32.5632v-30.72h-37.1712v-22.528h37.1712v-16.9984h-37.1712v-22.3232h29.9008l-39.936-74.1376h34.7136c15.7696 34.4064 25.8048 57.0368 29.9008 67.8912h0.7168c0.6144-1.536 1.2288-3.4816 1.9456-5.9392s6.144-14.9504 14.7456-33.5872l12.8-28.3648h32.9728l-40.96 74.1376z" fill="#ffffff" p-id="11028"></path></svg>