<?xml version="1.0" standalone="no"?><!DOCTYPE svg PUBLIC "-//W3C//DTD SVG 1.1//EN" "http://www.w3.org/Graphics/SVG/1.1/DTD/svg11.dtd"><svg t="1606796461923" class="icon" viewBox="0 0 1024 1024" version="1.1" xmlns="http://www.w3.org/2000/svg" p-id="3355" xmlns:xlink="http://www.w3.org/1999/xlink" width="128" height="128"><defs><style type="text/css"></style></defs><path d="M0 0m128 0l768 0q128 0 128 128l0 768q0 128-128 128l-768 0q-128 0-128-128l0-768q0-128 128-128Z" fill="#FF893C" p-id="3356"></path><path d="M320 351.36h384a18.346667 18.346667 0 0 0 0-36.48H320a18.346667 18.346667 0 0 0 0 36.48z m48-58.88h287.36a18.346667 18.346667 0 0 0 0-36.48H368.426667a18.346667 18.346667 0 0 0-17.92 18.346667 17.706667 17.706667 0 0 0 17.92 18.133333zM704 374.186667H320a64 64 0 0 0-62.933333 64V682.666667A64 64 0 0 0 320 746.666667h384a64 64 0 0 0 64-64V438.613333a64 64 0 0 0-64-64.426666zM595.413333 576a14.506667 14.506667 0 0 1 0 29.013333h-69.333333v67.626667a14.293333 14.293333 0 1 1-28.373333 0v-68.48h-69.333334a14.506667 14.506667 0 0 1 0-29.013333h69.333334v-31.573334h-69.333334a14.506667 14.506667 0 0 1 0-29.013333h54.4l-53.973333-54.4a14.08 14.08 0 0 1 0-20.266667 13.226667 13.226667 0 0 1 19.84 0l64 65.066667 64-65.493333a13.226667 13.226667 0 0 1 19.84 0 14.08 14.08 0 0 1 0 20.266666l-53.546667 55.253334h52.693334a14.506667 14.506667 0 0 1 0 29.013333h-69.546667V576z" fill="#FFFFFF" p-id="3357"></path></svg>