<?xml version="1.0" standalone="no"?><!DOCTYPE svg PUBLIC "-//W3C//DTD SVG 1.1//EN" "http://www.w3.org/Graphics/SVG/1.1/DTD/svg11.dtd"><svg t="1608697231105" class="icon" viewBox="0 0 1024 1024" version="1.1" xmlns="http://www.w3.org/2000/svg" p-id="17291" xmlns:xlink="http://www.w3.org/1999/xlink" width="128" height="128"><defs><style type="text/css"></style></defs><path d="M0 0m213.333333 0l597.333334 0q213.333333 0 213.333333 213.333333l0 597.333334q0 213.333333-213.333333 213.333333l-597.333334 0q-213.333333 0-213.333333-213.333333l0-597.333334q0-213.333333 213.333333-213.333333Z" fill="#44D7B6" p-id="17292"></path><path d="M270.485333 536.768c-10.112 0-19.733333-4.373333-26.368-11.989333a34.773333 34.773333 0 0 1-8.533333-24.896c0.469333-8.981333 4.416-17.429333 11.008-23.573334l162.901333-161.216a43.733333 43.733333 0 0 1 30.933334-12.714666c9.856 0 19.541333 3.370667 27.285333 9.493333l118.656 93.824 98.005333-112.256L628.842667 234.666667 788.48 234.666667l-0.042667 161.002666-53.418666-53.461333-118.165334 130.986667a42.581333 42.581333 0 0 1-58.496 4.394666l-119.189333-97.728-144.64 147.306667-0.213333 0.213333a34.794667 34.794667 0 0 1-23.829334 9.386667z m-22.4 35.776h66.24V789.333333H248.106667V572.544z m149.632-106.986667h66.218667V789.333333h-66.218667V465.557333z m162.218667 72.512h66.24V789.333333h-66.24V538.069333z m162.24-111.722666h66.218667V789.333333h-66.218667V426.346667z" fill="#FFFFFF" p-id="17293"></path></svg>