<?xml version="1.0" standalone="no"?><!DOCTYPE svg PUBLIC "-//W3C//DTD SVG 1.1//EN" "http://www.w3.org/Graphics/SVG/1.1/DTD/svg11.dtd"><svg t="1607669355020" class="icon" viewBox="0 0 1024 1024" version="1.1" xmlns="http://www.w3.org/2000/svg" p-id="11259" xmlns:xlink="http://www.w3.org/1999/xlink" width="128" height="128"><defs><style type="text/css"></style></defs><path d="M823.2 65.2h-622c-74.8 0-136 61.2-136 136v622c0 74.8 61.2 136 136 136h622c74.8 0 136-61.2 136-136v-622c0-74.8-61.2-136-136-136z m-353.8 680H313.6c-22.1 0-39.5-18.2-39.5-39.5V294.5c0-21.3 18.2-39.5 39.5-39.5h370c22.1 0 39.5 18.2 39.5 39.5v136.8c0 11.1-8.7 19.8-19.8 19.8-11.1 0-17.4-10.3-17.4-21.3v-117c0-11.1-9.5-20.6-20.6-20.6H334.2c-10.3 0-22.9 11.1-22.9 22.1v371.6c0 11.1 11.1 22.1 22.1 22.1h136c11.1 0 19.8 6.3 19.8 17.4 0 11.1-8.7 19.8-19.8 19.8zM358.7 568.9c0-11.1 8.7-19 19.8-19h72.7c11.1 0 19.8 7.9 19.8 19 0 10.3-7.9 18.2-19 18.2h-72.7c-11.1 0-20.6-7.1-20.6-18.2z m181.9-94.1c0 11.1-7.1 17.4-15.8 17.4H374.5c-8.7 0-15.8-7.9-15.8-19s7.1-19 15.8-19h150.2c8.7 0 15.8 7.9 15.8 19v1.6z m-162.1-77.5c-11.1 0-19.8-7.1-19.8-18.2s8.7-19 19.8-19h188.2c11.1 0.8 19.8 7.9 19.8 19 0 10.3-8.7 18.2-19.8 18.2H378.5z m386.6 201.6c0 10.3-8.7 17.4-19 17.4h-59.3v32.4h41.9c10.3 0 18.2 8.7 19 19v2.4c0 10.3-8.7 18.2-19 19h-41.9v38c0 11.1-7.9 19-18.2 19-11.1 0-19-8.7-19-19.8v-38h-41.9c-10.3 0-18.2-8.7-19-19v-2.4c0-10.3 8.7-18.2 19-19h41.9v-32.4h-59.3c-10.3 0-18.2-7.1-19-17.4v-2.4c0-10.3 8.7-17.4 19-17.4h54.6L608.6 542c-3.2-4-5.5-8.7-5.5-14.2 0-11.1 8.7-16.6 19.8-16.6 5.5 0 10.3 1.6 14.2 5.5l32.4 35.6 30.8-34.8c4-4 10.3-6.3 15-6.3 5.5 0 8.7 0 11.9 4 4 4 5.5 8.7 5.5 14.2s-3.2 11.9-7.1 15l-34 34.8h54.6c10.3 0 18.2 7.1 19 17.4v2.3z" fill="#87c38f" p-id="11260"></path></svg>