<?xml version="1.0" standalone="no"?><!DOCTYPE svg PUBLIC "-//W3C//DTD SVG 1.1//EN" "http://www.w3.org/Graphics/SVG/1.1/DTD/svg11.dtd"><svg t="1608702940597" class="icon" viewBox="0 0 1024 1024" version="1.1" xmlns="http://www.w3.org/2000/svg" p-id="85775" xmlns:xlink="http://www.w3.org/1999/xlink" width="128" height="128"><defs><style type="text/css"></style></defs><path d="M849.17 0C946.577 0 1024 77.424 1024 174.83v674.34c0 97.406-77.424 174.83-174.83 174.83H174.83C77.423 1024 0 946.576 0 849.17V174.83C0 77.423 77.424 0 174.83 0h674.34z m-44.955 694.322h-584.43v64.937h584.43v-64.937zM359.649 457.054H264.74V654.36h94.908V457.054z m132.37-199.805h-94.907v399.61h94.908v-399.61z m134.869 119.883H531.98V654.36h94.908v-277.23z m132.37 177.327h-94.907v99.902h94.908v-99.902z" fill="#87c38f" p-id="85776"></path></svg>