<?xml version="1.0" standalone="no"?><!DOCTYPE svg PUBLIC "-//W3C//DTD SVG 1.1//EN" "http://www.w3.org/Graphics/SVG/1.1/DTD/svg11.dtd"><svg t="1607323963845" class="icon" viewBox="0 0 1024 1024" version="1.1" xmlns="http://www.w3.org/2000/svg" p-id="10370" xmlns:xlink="http://www.w3.org/1999/xlink" width="128" height="128"><defs><style type="text/css"></style></defs><path d="M864 1024H160c-88 0-160-72-160-160v-704c0-88 72-160 160-160h704c88 0 160 72 160 160v704c0 88-72 160-160 160z" fill="#1296db" p-id="10371" data-spm-anchor-id="a313x.7781069.0.i5" class="selected"></path><path d="M319.2 820V410.4c0-16-12.8-28.8-27.2-28.8H208c-15.2 0-27.2 13.6-27.2 28.8v409.6h138.4zM495.2 820v-585.6c0-16-12.8-30.4-27.2-30.4H384c-15.2 0-27.2 13.6-27.2 30.4v585.6h138.4zM670.4 820V560.8c0-16-12.8-30.4-27.2-30.4h-82.4c-15.2 0-27.2 13.6-27.2 30.4v259.2h136.8zM846.4 820V410.4c0-16-12.8-28.8-27.2-28.8H736c-15.2 0-27.2 13.6-27.2 28.8v409.6h137.6z" fill="#FFFFFF" p-id="10372"></path></svg>