<?xml version="1.0" standalone="no"?><!DOCTYPE svg PUBLIC "-//W3C//DTD SVG 1.1//EN" "http://www.w3.org/Graphics/SVG/1.1/DTD/svg11.dtd"><svg t="1607307544083" class="icon" viewBox="0 0 1024 1024" version="1.1" xmlns="http://www.w3.org/2000/svg" p-id="47772" xmlns:xlink="http://www.w3.org/1999/xlink" width="128" height="128"><defs><style type="text/css"></style></defs><path d="M848.457143 0c96.943543 0 175.542857 78.599314 175.542857 175.542857v672.914286c0 96.943543-78.599314 175.542857-175.542857 175.542857H175.542857C78.599314 1024 0 945.400686 0 848.457143V175.542857C0 78.599314 78.599314 0 175.542857 0h672.914286zM468.333714 708.666514a11.410286 11.410286 0 0 0-11.541943 11.278629v73.230628a11.264 11.264 0 0 0 5.237029 9.567086 11.629714 11.629714 0 0 0 15.930514-3.320686l40.257829-60.079542a11.264 11.264 0 0 0-5.968457-16.939886l-40.316343-13.165714a11.702857 11.702857 0 0 0-3.598629-0.570515z m377.124572-473.088c-7.168-14.306743-24.751543-20.216686-39.3216-13.194971L162.845257 530.432c-7.3728 3.510857-12.917029 9.903543-15.286857 17.6128-4.7104 15.2576 4.066743 31.378286 19.602286 36.000914l207.535543 61.922743v-0.190171a28.701257 28.701257 0 0 0 24.078628-5.397943h0.043886v-0.043886l332.3904-279.317943-266.196114 294.239086a10.708114 10.708114 0 0 0-3.818058 8.221257 11.3664 11.3664 0 0 0 9.025829 10.839772L690.761143 740.059429c0.453486 0.146286 0.906971 0.263314 1.375086 0.380342 15.725714 3.905829 31.700114-5.441829 35.693714-20.904228l119.720228-464.0768a28.423314 28.423314 0 0 0-2.106514-19.8656z" p-id="47773" data-spm-anchor-id="a313x.7781069.0.i10" class="selected" fill="#dd6572"></path></svg>