<?xml version="1.0" standalone="no"?><!DOCTYPE svg PUBLIC "-//W3C//DTD SVG 1.1//EN" "http://www.w3.org/Graphics/SVG/1.1/DTD/svg11.dtd"><svg t="1609900227463" class="icon" viewBox="0 0 1024 1024" version="1.1" xmlns="http://www.w3.org/2000/svg" p-id="7835" xmlns:xlink="http://www.w3.org/1999/xlink" width="128" height="128"><defs><style type="text/css"></style></defs><path d="M808.421053 0c118.568421 0 215.578947 97.010526 215.578947 215.578947v592.842106c0 118.568421-97.010526 215.578947-215.578947 215.578947H215.578947C97.010526 1024 0 926.989474 0 808.421053V215.578947C0 97.010526 97.010526 0 215.578947 0h592.842106zM494.035088 237.136842l-235.340351 102.4c-14.37193 5.389474-25.150877 21.557895-25.150877 37.726316v366.48421c0 23.354386 19.761404 43.115789 43.115789 43.11579h470.680702c23.354386 0 43.115789-19.761404 43.115789-43.11579v-149.108772h-43.115789v-84.435087H790.45614V377.263158c0-16.168421-10.778947-32.336842-25.150877-39.522807l-235.340351-102.4c-12.575439-3.592982-25.150877-3.592982-35.929824 1.796491z m80.842105 197.614035v75.452632h43.115789v84.435087H574.877193v75.452632c-14.37193 12.575439-37.726316 12.575439-52.098246 0L416.785965 574.877193c-14.37193-12.575439-14.37193-34.133333 0-46.708772l105.992982-95.214035c12.575439-10.778947 37.726316-10.778947 52.098246 1.796491z m129.347368 75.452632v84.435087h-43.115789v-84.435087h43.115789z" fill="#1296db" p-id="7836"></path></svg>