<?xml version="1.0" standalone="no"?><!DOCTYPE svg PUBLIC "-//W3C//DTD SVG 1.1//EN" "http://www.w3.org/Graphics/SVG/1.1/DTD/svg11.dtd"><svg t="1609149060840" class="icon" viewBox="0 0 1024 1024" version="1.1" xmlns="http://www.w3.org/2000/svg" p-id="15645" xmlns:xlink="http://www.w3.org/1999/xlink" width="128" height="128"><defs><style type="text/css"></style></defs><path d="M844 1024H180c-99.4 0-180-80.6-180-180V180C0 80.6 80.6 0 180 0h664c99.4 0 180 80.6 180 180v664c0 99.4-80.6 180-180 180z" fill="#0FD9C8" p-id="15646"></path><path d="M834.8 513.6v342.2c0 31.2-4.8 36.4-34.6 36.4H277.6c-53.8 0-87.8-34-88-90.6-0.2-193.4-0.4-386.6 0-580C189.8 166.2 224 132 277 132h526c26 0 31.8 6 31.8 33.6v348z m-401-44.4c-32.8 22.2-65 44.6-97.6 66.4-5.8 3.8-12.8 5.6-19.2 8.4-1.8-7.6-5.4-15.2-5.6-22.4-0.2-108.4-0.2-216.6-0.2-325V173.2h-26.2c-42.8 0-56 13.8-56 59.2v496c28.8-1.6 55.6-4 82.6-4.2 153-0.6 306.2-0.2 459-0.2 7.8 0 15.4-0.8 23.2-1V174.2h-242v21.2c0 110.2 0 220.4-0.2 330.8 0 5.8-3.2 11.6-4.6 17-5.6-1.8-11.6-2.6-16.2-5.6-32.4-22.2-64.2-45.2-97-68.4z m360.6 296.4H274c-26.2 0-44 17-44.6 41.6-0.4 24 17.8 42.2 43.6 43.4 3.6 0.2 7.2 0 10.8 0h491.4c6.2 0 12.8-0.6 19.2-1v-84zM511.2 474.2V174.6h-159.8V476c20-13.6 37.8-25.2 55.2-37.6 18.8-13.6 36.8-13.4 55.4 0.6 15.4 11.8 31.4 22.6 49.2 35.2z" fill="#FFFFFF" p-id="15647"></path></svg>