<?xml version="1.0" standalone="no"?><!DOCTYPE svg PUBLIC "-//W3C//DTD SVG 1.1//EN" "http://www.w3.org/Graphics/SVG/1.1/DTD/svg11.dtd"><svg t="1607307368406" class="icon" viewBox="0 0 1024 1024" version="1.1" xmlns="http://www.w3.org/2000/svg" p-id="40925" xmlns:xlink="http://www.w3.org/1999/xlink" width="128" height="128"><defs><style type="text/css"></style></defs><path d="M165.16129 0h693.67742a165.16129 165.16129 0 0 1 165.16129 165.16129v693.67742a165.16129 165.16129 0 0 1-165.16129 165.16129H165.16129A165.16129 165.16129 0 0 1 0 858.83871V165.16129A165.16129 165.16129 0 0 1 165.16129 0z" fill="#F89D7A" p-id="40926" data-spm-anchor-id="a313x.7781069.0.i7" class="selected"></path><path d="M356.170323 439.527226a199.845161 199.845161 0 0 0-41.851871 96.801032 16.763871 16.763871 0 0 0 15.690322 20.925936h2.609549a17.490581 17.490581 0 0 0 18.316387-15.690323 180.389161 180.389161 0 0 1 36.632774-78.484645 17.474065 17.474065 0 0 0-2.609549-26.161549 20.711226 20.711226 0 0 0-28.787612 2.609549z m-2.609549 159.578839a20.017548 20.017548 0 1 0-39.242322 7.845161 190.579613 190.579613 0 0 0 39.242322 83.720258 23.750194 23.750194 0 0 0 18.316387 7.845161c5.235613 0 7.845161-2.609548 13.080774-5.235613a20.496516 20.496516 0 0 0 2.609549-28.771097 157.035355 157.035355 0 0 1-34.023226-65.40387z m136.043355 128.181677a130.972903 130.972903 0 0 1-62.76129-23.552 18.861419 18.861419 0 1 0-20.925936 31.380645 179.117419 179.117419 0 0 0 78.484645 28.771097h2.609549a17.490581 17.490581 0 0 0 18.316387-15.690323 16.763871 16.763871 0 0 0-15.739871-20.892903z m57.608258-361.009548V264.258065l-120.336516 120.336516 120.336516 117.726967v-94.141935a165.16129 165.16129 0 0 1 130.807742 159.578839 167.490065 167.490065 0 0 1-107.255742 154.343225 21.586581 21.586581 0 0 0-13.080774 26.161549 19.67071 19.67071 0 0 0 18.316387 13.080774h7.845161a200.571871 200.571871 0 0 0 133.417291-190.976 203.693419 203.693419 0 0 0-170.050065-204.089806z" fill="#FFFFFF" p-id="40927"></path></svg>