<?xml version="1.0" standalone="no"?><!DOCTYPE svg PUBLIC "-//W3C//DTD SVG 1.1//EN" "http://www.w3.org/Graphics/SVG/1.1/DTD/svg11.dtd"><svg t="1614913339490" class="icon" viewBox="0 0 1024 1024" version="1.1" xmlns="http://www.w3.org/2000/svg" p-id="67042" xmlns:xlink="http://www.w3.org/1999/xlink" width="64" height="64"><defs><style type="text/css"></style></defs><path d="M918.032516 33.032258A106.297806 106.297806 0 0 1 1024 138.999742v779.032774A106.297806 106.297806 0 0 1 918.032516 1024H138.999742A106.297806 106.297806 0 0 1 33.032258 918.032516V138.999742A106.297806 106.297806 0 0 1 138.999742 33.032258zM450.427871 231.225806C370.027355 231.225806 304.887742 301.056 304.887742 387.204129c0 67.517935 40.134194 124.861935 96.156903 146.531097-134.044903 22.197677-236.081548 135.101935-236.081548 271.095742 0 7.002839 0.330323 14.005677 0.924903 20.975484h566.965677c0.495484-7.002839 0.825806-13.972645 0.825807-20.975484 0-135.498323-101.276903-248.039226-234.529032-270.798452 56.386065-21.504 96.817548-79.046194 96.817548-146.828387C595.968 301.056 530.828387 231.225806 450.427871 231.225806z m199.68 0c-26.822194 0.099097-52.851613 10.074839-73.694968 28.308646l4.888774 2.741677c35.707871 21.470968 66.791226 67.584 66.791226 128.825806 0 53.347097-17.044645 93.547355-41.785806 116.339613 0.990968 0.429419 1.981935 0.957935 3.005935 1.354323a176.821677 176.821677 0 0 0-6.077935 1.255226 80.499613 80.499613 0 0 1-27.515871 15.426064c101.177806 29.299613 192.247742 120.567742 202.884129 234.264774h113.003355l0.066064-2.807741c0-124.531613-86.775742-227.922581-200.704-248.138323 48.227097-19.489032 82.910968-72.340645 82.910968-134.705548C773.84671 295.143226 718.451613 231.225806 650.074839 231.225806z" fill="#1196db" p-id="67043" data-spm-anchor-id="a313x.7781069.0.i4" class="selected"></path></svg>